<svg xmlns="http://www.w3.org/2000/svg" viewBox="0 0 256 256"><path fill="#FF6E40" d="M88.6 0L37.53 56.287V256h180.94V0z"/><path fill="#DD3F13" d="M88.6 56.287V0L37.53 56.287z"/><path fill="#A12000" d="M178.144 105.152c-7.723-11.46-21.58-18.11-41.152-19.766l-.032-.003a36.722 36.722 0 0 0-4.12-.247c-9.866 0-13.368 4.94-13.368 9.17v73.615c-3.88-1.17-8.044-1.505-12.155-.986-7.164.904-13.583 4.267-18.072 9.47-4.49 5.204-6.514 11.625-5.7 18.08 1.513 11.983 12.728 21.02 26.088 21.02 1.254 0 2.527-.082 3.783-.24 13.85-1.747 23.9-12.732 23.9-26.117v-72.233a46.3 46.3 0 0 1 3.098-.105c12.21 0 23.436 5.107 32.465 14.77a60.685 60.685 0 0 1 7.87 10.567 1.783 1.783 0 0 0 3.294-.582c1.48-8.13 2.684-23.675-5.9-36.412z"/></svg>