<svg xmlns="http://www.w3.org/2000/svg" viewBox="0 0 256 256"><path fill="#E73D3C" d="M88.6 0L37.53 56.287V256h180.94V0z"/><path fill="#C01716" d="M88.6 56.287V0L37.53 56.287z"/><path fill="#FFF" d="M190.336 182.208c-.234-1.83-1.248-2.875-2.533-3.704-2.435-1.57-5.164-2.175-8.01-2.358-5.952-.384-11.876.087-17.797.61-1.567.137-3.132.29-4.83.45.156.174.22.29.317.35 5.683 3.44 11.57 6.426 18.103 7.916 3.077.7 6.178.977 9.288.198 2.074-.52 3.83-1.594 5.39-3.136-.143.393-.247.805-.43 1.177-1.97 3.976-5.237 6.14-9.564 6.803-5.407.828-10.52-.39-15.525-2.277-6.12-2.308-11.73-5.584-17.154-9.197-.657-.44-1.255-.563-2.037-.448-13.333 1.962-26.206 5.717-38.963 9.935-.696.23-1.104.615-1.44 1.262-3.224 6.236-6.775 12.276-11.03 17.877-3.028 3.984-6.316 7.723-10.434 10.64-2.25 1.593-4.656 2.91-7.436 3.234-4.174.488-7.62-.934-10.073-4.38-1.674-2.352-1.365-4.846-.04-7.26 1.523-2.772 3.81-4.866 6.247-6.803 4.966-3.945 10.48-7.005 16.096-9.895.9-.462 1.814-.903 2.723-1.35.045-.023.107-.012.37-.033-.977 1.23-1.76 2.436-2.984 3.244-4.056 2.675-7.937 5.568-11.335 9.057-2.932 3.01-5.51 6.276-6.787 10.36-.388 1.236-.52 2.55-.768 3.83.11.076.22.153.328.23 1.112-.577 2.278-1.07 3.327-1.744 3.013-1.937 5.49-4.486 7.85-7.15 5.53-6.242 10.23-13.094 14.617-20.16 8.557-13.78 16.09-28.08 21.968-43.228.88-2.27.986-4.292.25-6.634-2.19-6.955-3.937-14.034-5.017-21.255-.596-3.984-1.003-7.978-.482-12.028.667-5.165 4.424-7.46 8.036-8.353 2.696-.667 4.73.39 6.385 2.42 1.7 2.083 2.34 4.587 2.753 7.165.857 5.367.027 10.615-1.277 15.8-1.22 4.853-2.58 9.672-3.9 14.5-.17.624-.167 1.17.082 1.785 5.296 13.06 13.424 23.888 25.02 32.037 1.452 1.02 2.84 1.243 4.555.987 6.182-.92 12.374-1.813 18.638-1.97 3.95-.1 7.895-.04 11.72 1.135.778.24 1.544.54 2.273.9 3.465 1.702 4.756 4.464 3.874 8.22-.08.348-.2.688-.364 1.24zm-48.236-7.364c-4.506-4.084-8.388-8.412-11.796-13.164-3.4-4.74-6.277-9.792-8.955-15.084-4.054 13.413-8.76 26.447-14.64 39.258 11.53-4.64 23.023-8.855 35.39-11.01zm-19.464-73.465c-.298.45-.625.873-.873 1.336-1.393 2.6-1.724 5.45-1.832 8.326-.216 5.828.6 11.56 1.776 17.248.357 1.724.795 3.43 1.196 5.145 1.456-4.324 2.738-8.63 3.935-12.96.87-3.153 1.474-6.36 1.32-9.656-.19-4.063-1.806-7.32-5.52-9.44z"/></svg>