<svg xmlns="http://www.w3.org/2000/svg" viewBox="0 0 256 256"><path fill="#F2F2F2" d="M88.788.613L37.964 56.63v198.757h180.072V.613z"/><path fill="#B0B0B0" d="M218.65 256H37.35V56.393l.16-.175L88.515 0H218.65v256zm-180.073-1.227h178.846V1.227H89.06l-50.483 55.64v197.906z"/><g fill="#B0B0B0"><path d="M88.788 56.63V.614L37.964 56.63z"/><path d="M87.56 3.79v51.615H40.734L87.56 3.79M88.79.614L37.964 56.63h50.823V.614z"/></g><g fill="#5350E2"><path d="M120.75 222.167c-1.502-.372-2.594-.558-3.606-.914-1.157-.408-1.032-1.2-.725-2.11 3.376-10.004 6.714-20.018 10.06-30.03 2.31-6.91 4.583-13.825 6.955-20.716.262-.76 1.092-1.98 1.604-1.96 1.413.057 2.857.556 4.152 1.115.306.132.254 1.234.06 1.815-4.456 13.45-8.952 26.887-13.447 40.326-1.218 3.64-2.422 7.286-3.726 10.904-.223.615-.92 1.103-1.33 1.57z"/><path d="M120.727 225.336c-.246 0-.494-.03-.737-.09-.47-.115-.9-.212-1.297-.303-.9-.204-1.752-.4-2.605-.7-.702-.246-4.158-1.708-2.677-6.112 2.81-8.314 5.59-16.632 8.37-24.952l3.367-10.092c1.745-5.246 3.49-10.49 5.292-15.72.013-.042 1.463-4.227 4.717-4.1 2.09.084 4.024.825 5.296 1.375 2.24.97 2.508 3.65 1.81 5.733a13103.958 13103.958 0 0 1-12.665 37.99l-1.266 3.786c-1.06 3.18-2.127 6.363-3.265 9.523-.41 1.134-1.18 1.865-1.685 2.35-.085.082-.17.156-.238.232a3.266 3.266 0 0 1-2.415 1.082zm-39.467-32.91c6.688 6.645 13.055 12.924 19.344 19.28.752.76 1.765 2.395 1.47 2.85-.925 1.424-2.363 2.55-3.746 3.6-.26.2-1.332-.33-1.78-.773-7.76-7.714-15.478-15.47-23.216-23.207-1.152-1.15-1.036-2.14.096-3.268 7.7-7.674 15.385-15.364 23.03-23.092 1.248-1.26 2.194-1.148 3.408.014 3.252 3.116 3.283 3.12.125 6.285-5.52 5.533-11.034 11.07-16.57 16.588-.6.597-1.327 1.065-2.158 1.724z"/><path d="M98.18 221.383c-1.67 0-3.247-1.132-3.87-1.752a5844.452 5844.452 0 0 1-16.145-16.126l-7.077-7.085c-1.223-1.224-1.805-2.583-1.733-4.043.064-1.318.682-2.567 1.83-3.714a4552.917 4552.917 0 0 0 23.018-23.078c2.404-2.435 5.344-2.452 7.855-.045 2.076 1.988 3.42 3.277 3.445 5.396.023 2.12-1.36 3.505-3.27 5.42l-2.256 2.262c-4.664 4.676-9.328 9.355-14.004 14.017l2.332 2.315c4.966 4.926 9.782 9.704 14.552 14.525.39.392 3.75 3.93 1.87 6.814-1.164 1.793-2.783 3.1-4.48 4.39a3.32 3.32 0 0 1-2.067.702zm-21.945-28.796l6.42 6.432a6341.206 6341.206 0 0 0 15.35 15.335c.137-.12.27-.24.398-.36a.823.823 0 0 0-.056-.06c-4.755-4.806-9.557-9.57-14.508-14.48l-4.817-4.78a3.182 3.182 0 0 1-.932-2.43 3.185 3.185 0 0 1 1.2-2.31c.3-.234.588-.45.86-.654.38-.282.727-.53 1.027-.825 4.778-4.763 9.543-9.54 14.308-14.318l2.256-2.264c.278-.275.58-.58.854-.86-.136-.133-.28-.274-.428-.414-7.283 7.356-14.6 14.68-21.932 21.986zm98.315-.033c-6.54-6.503-12.91-12.784-19.193-19.15-.745-.755-1.702-2.41-1.39-2.89.918-1.42 2.377-2.52 3.746-3.59.22-.173 1.19.318 1.596.72 7.8 7.77 15.565 15.576 23.353 23.358 1.164 1.163 1.03 2.148-.09 3.266a7369.012 7369.012 0 0 0-23.02 23.087c-1.133 1.142-2.087 1.148-3.27.04-3.423-3.204-3.454-3.21-.09-6.564 6.035-6.014 12.078-12.024 18.356-18.275z"/><path d="M157.926 221.38c-1.305 0-2.623-.557-3.81-1.67-2.157-2.02-3.56-3.332-3.595-5.494-.03-2.175 1.347-3.55 3.435-5.63l16.097-16.03-2.35-2.332c-4.943-4.906-9.797-9.723-14.6-14.59-.158-.16-3.736-3.853-1.796-6.844 1.16-1.795 2.8-3.074 4.247-4.2l.21-.164c2.198-1.727 4.918.112 5.784.965a7673.68 7673.68 0 0 1 14.265 14.265l9.1 9.105c1.16 1.158 1.743 2.443 1.743 3.82-.002 1.398-.62 2.724-1.838 3.937a7361.634 7361.634 0 0 0-23.008 23.074c-1.185 1.193-2.527 1.79-3.88 1.79zm-.506-7.278l.452.432a8923.33 8923.33 0 0 1 21.89-21.94l-8.445-8.458c-4.445-4.45-8.89-8.905-13.346-13.346a13.63 13.63 0 0 0-.386.353l.035.037c4.785 4.848 9.624 9.65 14.55 14.54l4.618 4.585a3.17 3.17 0 0 1 .002 4.496l-18.358 18.28c-.33.33-.698.697-1.012 1.023z"/></g></svg>