<svg xmlns="http://www.w3.org/2000/svg" xmlns:xlink="http://www.w3.org/1999/xlink" height="32" width="32"><defs><linearGradient id="j" x1="16" xlink:href="#a" gradientUnits="userSpaceOnUse" y1="9" gradientTransform="matrix(1 0 0 -1 0 34.004)" x2="16" y2="25"/><linearGradient id="a"><stop offset="0"/><stop stop-opacity="0" offset="1"/></linearGradient><linearGradient id="i" x1="16" xlink:href="#a" gradientUnits="userSpaceOnUse" x2="16" y1="9" y2="25"/><linearGradient id="h" x1="19.93" gradientUnits="userSpaceOnUse" y1="44.95" gradientTransform="translate(0 .333) scale(.66667)" x2="19.93" y2="5"><stop stop-color="#505050" offset="0"/><stop stop-color="#8e8e8e" offset="1"/></linearGradient><linearGradient id="g" x1="24" gradientUnits="userSpaceOnUse" y1="5" gradientTransform="translate(1.081 2.081) scale(.62162)" x2="24" y2="43"><stop stop-color="#fff" offset="0"/><stop stop-color="#fff" stop-opacity=".24" offset=".06"/><stop stop-color="#fff" stop-opacity=".16" offset=".95"/><stop stop-color="#fff" stop-opacity=".39" offset="1"/></linearGradient><radialGradient id="f" gradientUnits="userSpaceOnUse" cy="8.45" cx="7.5" gradientTransform="matrix(0 1.4981 -1.5848 0 29.391 -6.356)" r="20"><stop stop-color="#c7c7c7" offset="0"/><stop stop-color="#a6a6a6" offset=".26"/><stop stop-color="#7b7b7b" offset=".7"/><stop stop-color="#595959" offset="1"/></radialGradient><linearGradient id="e" x1="24" gradientUnits="userSpaceOnUse" y1="44" gradientTransform="translate(.615 1.615) scale(.64103)" x2="24" y2="3.9"><stop stop-color="#505050" offset="0"/><stop stop-color="#8e8e8e" offset="1"/></linearGradient><radialGradient id="b" gradientUnits="userSpaceOnUse" cy="43.5" cx="4.99" gradientTransform="matrix(2.0038 0 0 1.4 27.988 -17.4)" r="2.5"><stop stop-color="#181818" offset="0"/><stop stop-color="#181818" stop-opacity="0" offset="1"/></radialGradient><radialGradient id="c" gradientUnits="userSpaceOnUse" cy="43.5" cx="4.99" gradientTransform="matrix(2.0038 0 0 1.4 -20.012 -104.4)" r="2.5"><stop stop-color="#181818" offset="0"/><stop stop-color="#181818" stop-opacity="0" offset="1"/></radialGradient><linearGradient id="d" y2="40" gradientUnits="userSpaceOnUse" y1="47.03" x2="25.06" x1="25.06"><stop stop-color="#181818" stop-opacity="0" offset="0"/><stop stop-color="#181818" offset=".5"/><stop stop-color="#181818" stop-opacity="0" offset="1"/></linearGradient></defs><g opacity=".4"><path fill="url(#b)" d="M38 40h5v7h-5z" transform="matrix(.73682 0 0 .42856 -1.684 10.857)"/><path transform="matrix(-.73682 0 0 -.42856 -1.684 10.857)" fill="url(#c)" d="M-10-47h5v7h-5z"/><path fill="url(#d)" d="M10 40h28v7H10z" transform="matrix(.73682 0 0 .42856 -1.684 10.857)"/></g><rect stroke-linejoin="round" rx="2" ry="2" height="25" width="25" stroke="url(#e)" stroke-linecap="round" y="4.5" x="3.5" fill="url(#f)" color="#000"/><rect opacity=".5" stroke-linejoin="round" rx="1" ry="1" height="23" width="23" stroke="url(#g)" stroke-linecap="round" y="5.5" x="4.5" fill="none"/><path opacity=".41" d="M15 10c-.28 0-.5.22-.5.5v1.69c-.55.14-1.05.38-1.53.66l-1.22-1.22c-.2-.2-.49-.2-.69 0l-1.44 1.44c-.2.2-.2.49 0 .69l1.22 1.22c-.28.48-.52.98-.66 1.53H8.49c-.28 0-.5.22-.5.5v2c0 .28.22.5.5.5h1.69c.14.55.38 1.06.66 1.53l-1.22 1.22c-.2.2-.2.49 0 .69l1.44 1.44c.2.2.49.2.69 0l1.22-1.22c.48.28.98.52 1.53.66v1.69c0 .28.22.5.5.5h2c.28 0 .5-.22.5-.5v-1.69c.55-.14 1.06-.38 1.53-.66l1.22 1.22c.2.2.49.2.69 0l1.44-1.44c.2-.2.2-.49 0-.69l-1.22-1.22c.28-.48.52-.98.66-1.53h1.69c.28 0 .5-.22.5-.5v-2c0-.28-.22-.5-.5-.5h-1.69c-.14-.55-.38-1.05-.66-1.53l1.22-1.22c.2-.2.2-.49 0-.69l-1.44-1.44c-.2-.2-.49-.2-.69 0l-1.22 1.22c-.48-.28-.98-.52-1.53-.66V10.5c0-.28-.22-.5-.5-.5h-2zm1 5c1.66 0 3 1.34 3 3s-1.34 3-3 3-3-1.34-3-3 1.34-3 3-3z" fill="#fff" color="#000"/><path d="M15 9c-.28 0-.5.22-.5.5v1.69c-.55.14-1.05.38-1.53.66l-1.22-1.22c-.2-.2-.49-.2-.69 0l-1.44 1.44c-.2.2-.2.49 0 .69l1.22 1.22c-.28.48-.52.98-.66 1.53H8.49c-.28 0-.5.22-.5.5v2c0 .28.22.5.5.5h1.69c.14.55.38 1.06.66 1.53l-1.22 1.22c-.2.2-.2.49 0 .69l1.44 1.44c.2.2.49.2.69 0l1.22-1.22c.48.28.98.52 1.53.66v1.69c0 .28.22.5.5.5h2c.28 0 .5-.22.5-.5v-1.69c.55-.14 1.06-.38 1.53-.66l1.22 1.22c.2.2.49.2.69 0l1.44-1.44c.2-.2.2-.49 0-.69l-1.22-1.22c.28-.48.52-.98.66-1.53h1.69c.28 0 .5-.22.5-.5v-2c0-.28-.22-.5-.5-.5h-1.69c-.14-.55-.38-1.05-.66-1.53l1.22-1.22c.2-.2.2-.49 0-.69l-1.44-1.44c-.2-.2-.49-.2-.69 0l-1.22 1.22c-.48-.28-.98-.52-1.53-.66V9.5c0-.28-.22-.5-.5-.5h-2zm1 5c1.66 0 3 1.34 3 3s-1.34 3-3 3-3-1.34-3-3 1.34-3 3-3z" fill="url(#h)" color="#000"/><path opacity=".1" stroke-linejoin="round" d="M15.06 9.56c-.02.62.05 1.24-.04 1.85-.22.48-.87.39-1.26.66-.36.18-.83.56-1.2.18l-1.16-1.16-1.31 1.31c.41.44.88.83 1.26 1.29.24.48-.29.88-.39 1.33-.17.37-.18 1-.72 1.03H8.56v1.88c.62.02 1.24-.05 1.85.04.48.22.39.87.66 1.26.18.36.56.83.18 1.2l-1.16 1.16 1.31 1.31c.44-.41.83-.88 1.29-1.26.48-.24.88.29 1.33.39.37.17 1 .18 1.03.72v1.68h1.88c.02-.62-.05-1.24.04-1.85.22-.48.87-.39 1.26-.66.36-.18.83-.56 1.2-.18l1.16 1.16 1.31-1.31c-.41-.44-.88-.83-1.26-1.29-.24-.48.29-.88.39-1.33.17-.37.18-1 .72-1.03h1.68v-1.87c-.62-.02-1.24.05-1.85-.04-.48-.22-.39-.87-.66-1.26-.18-.36-.56-.83-.18-1.2l1.16-1.16-1.31-1.31c-.44.41-.83.88-1.29 1.26-.48.24-.88-.29-1.33-.39-.37-.17-1-.18-1.03-.72V9.57h-1.87z" stroke="url(#i)" fill="none" color="#000"/><path opacity=".1" stroke-linejoin="round" d="M16 20.57c1.94.05 3.66-1.72 3.56-3.65 0-1.94-1.81-3.62-3.74-3.47-1.94.05-3.57 1.91-3.37 3.83.1 1.81 1.74 3.32 3.55 3.29z" stroke="url(#j)" fill="none" color="#000"/></svg>