<svg xmlns="http://www.w3.org/2000/svg" viewBox="-177 269 256 256"><path fill="#F2F2F2" d="M-88.4 269l-51.07 56.287V525H41.47V269z"/><path fill="#B0B0B0" d="M40.236 270.233v253.535h-178.473V325.763l50.382-55.53h128.09M41.47 269H-88.4l-51.07 56.287V525H41.47V269z"/><g fill="#B0B0B0"><path d="M-88.4 325.287V269l-51.07 56.287z"/><path d="M-89.634 272.193v51.862h-47.053l47.053-51.862M-88.4 269l-51.07 56.287h51.07V269z"/></g><path fill="#FFAF2E" d="M-16.283 395.498l-6.298-5.754-8.333 1.834-2.567-8.138-8.137-2.566 1.835-8.33-5.754-6.3 5.754-6.296-1.834-8.332 8.138-2.567 2.566-8.14 8.33 1.836 6.3-5.754 6.296 5.754 8.332-1.835 2.566 8.14 8.138 2.566-1.835 8.33 5.754 6.298-5.756 6.298 1.835 8.33-8.14 2.568-2.566 8.14-8.33-1.836-6.298 5.754v-4.93 4.93"/><path fill="#74B58A" d="M41.47 525v-57.153L-2.7 419.164v-.29l-.132.145-.132-.148v.29L-98.986 525z"/><path fill="#30C56A" d="M-88.98 398.828v-.29l-.133.145-.132-.146v.29l-50.224 55.358V525H25.49z"/></svg>