<svg xmlns="http://www.w3.org/2000/svg" viewBox="-177 269 256 256"><path fill="#E09641" d="M-87.4 269l-51.07 56.287V525H42.47V269z"/><path fill="#935003" d="M-87.4 325.287V269l-51.07 56.287zM-48 446.94c-9.9 0-17.923-.378-17.923 36.393 0 14.273 8.024 23.733 17.923 23.733s17.923-9.46 17.923-23.733c0-36.768-8.024-36.392-17.923-36.392zm3.348 53.744h-6.703c-4.31 0-7.798-4.312-7.798-9.625 0-5.32 3.49-9.628 7.798-9.628h6.703c4.313 0 7.805 4.31 7.805 9.626 0 5.313-3.492 9.624-7.805 9.624zm13.684-103.65V368.79h-7.048v6.395H-48v15.455h9.984v6.396zm-27.016-95.154h-7.048v26.815h7.048v-6.4H-48V306.84h-9.984zm0 66.07H-48v-15.453h-9.984V346.1h-7.048v28.248h7.048zM-48 435.99l9.984-.002v6.4h7.048v-28.245h-7.048v6.4H-48zm9.984-84.606h7.048v-28.248h-7.048v6.4H-48v15.45h9.984zm-19.968 61.913H-48v-15.45h-9.984v-6.398h-7.048v28.245h7.048z"/></svg>