<svg xmlns="http://www.w3.org/2000/svg" viewBox="0 0 256 256"><path fill="#455A64" d="M88.6 0L37.53 56.287V256h180.94V0z"/><path fill="#FAFAFA" d="M98.945 150.476c0 8.854.223 17.715-.082 26.56-.19 5.497 4.88 8.09 9.275 5.364 7.514-4.662 15.244-8.974 22.883-13.434 7.64-4.46 15.29-8.903 22.913-13.388 2.67-1.57 3.672-3.738 3.015-6.28-.485-1.876-1.89-2.924-3.474-3.846-15.182-8.84-30.35-17.705-45.532-26.544-4.757-2.77-8.983-.32-8.99 5.192-.013 8.79-.005 17.584-.005 26.376zm-53.175 18.27c0 2.592.035 5.185-.018 7.776-.02.985.3 1.34 1.303 1.333 5.235-.036 10.47-.034 15.706 0 .954.005 1.223-.368 1.22-1.263-.027-5.235-.028-10.47 0-15.706.004-.904-.283-1.26-1.226-1.254-5.235.032-10.47.035-15.706-.002-1.013-.007-1.315.364-1.296 1.34.054 2.59.02 5.184.02 7.776zm154.257 9.094c2.592 0 5.185-.032 7.776.015.997.018 1.46-.212 1.45-1.345a895.927 895.927 0 0 1-.006-15.553c.007-.99-.31-1.334-1.308-1.327-5.237.035-10.473.034-15.708 0-.957-.005-1.216.378-1.212 1.268.026 5.235.036 10.47-.005 15.706-.008 1.07.468 1.264 1.387 1.25 2.54-.04 5.083-.015 7.625-.015zM45.88 87.557v17.99h17.948v-17.99h-17.95zm145.27 17.97h17.98v-17.93h-17.98v17.93zM63.968 123.57c-5.937 0-11.62-.02-17.3.052-.304.004-.855.764-.86 1.176-.058 5.23-.02 10.464-.052 15.695-.005.924.31 1.24 1.233 1.235 5.23-.03 10.462-.036 15.694.005 1.02.008 1.31-.366 1.297-1.333-.04-3.3-.013-6.603-.013-9.905v-6.925zm127.312-.006c-.104.32-.216.51-.216.697-.016 5.488-.012 10.973-.035 16.46-.005.837.422 1.005 1.143 1.003a1860.43 1860.43 0 0 1 15.848.007c.936.004 1.227-.34 1.22-1.25-.03-5.23-.03-10.463.003-15.695.005-.92-.297-1.253-1.23-1.237-2.64.046-5.28.015-7.923.015h-8.81zm8.747-57.75c2.592 0 5.185-.03 7.776.017.997.02 1.46-.21 1.45-1.343a895.927 895.927 0 0 1-.006-15.553c.007-.99-.31-1.334-1.308-1.327-5.237.035-10.473.034-15.708 0-.957-.005-1.216.378-1.212 1.268.026 5.235.036 10.47-.005 15.706-.008 1.07.468 1.265 1.387 1.25 2.54-.04 5.083-.014 7.625-.014zM191.28 11.54c-.104.32-.216.51-.216.697-.016 5.486-.012 10.97-.035 16.457-.005.838.422 1.006 1.143 1.004a1860.43 1860.43 0 0 1 15.848.007c.936.005 1.227-.338 1.22-1.248-.03-5.232-.03-10.464.003-15.696.005-.92-.297-1.25-1.23-1.235-2.64.046-5.28.015-7.923.015h-8.81zM45.88 191.058v17.99h17.948v-17.99h-17.95zm145.27 17.97h17.98v-17.93h-17.98v17.93zM63.968 227.07c-5.937 0-11.62-.018-17.3.053-.304.004-.855.764-.86 1.176-.058 5.23-.02 10.462-.052 15.693-.005.924.31 1.24 1.233 1.235 5.23-.03 10.462-.037 15.694.004 1.02.008 1.31-.366 1.297-1.333-.04-3.3-.013-6.603-.013-9.905v-6.925zm127.312-.005c-.104.32-.216.51-.216.697-.016 5.486-.012 10.97-.035 16.457-.005.836.422 1.004 1.143 1.002a1860.43 1860.43 0 0 1 15.848.007c.936.004 1.227-.34 1.22-1.25-.03-5.23-.03-10.463.003-15.695.005-.92-.297-1.253-1.23-1.237-2.64.045-5.28.014-7.923.014h-8.81zM45.77 56.722c0 2.592.035 5.185-.018 7.776-.02.985.3 1.34 1.303 1.333 5.235-.034 10.47-.032 15.706 0 .954.007 1.223-.366 1.22-1.26-.027-5.236-.028-10.47 0-15.707.004-.904-.283-1.26-1.226-1.254-5.235.03-10.47.034-15.706-.003-1.013-.007-1.315.364-1.296 1.34.054 2.59.02 5.183.02 7.776z"/><path fill="#263238" d="M88.6 56.287V0L37.53 56.287z"/></svg>