<svg xmlns="http://www.w3.org/2000/svg" viewBox="0 0 16.091 19.829"><g fill="#5350E2"><path d="M14.69 0H4.12a1.4 1.4 0 0 0-1.4 1.4v1.682H1.4c-.772 0-1.4.628-1.4 1.4v13.946c0 .772.628 1.4 1.4 1.4h10.57c.773 0 1.402-.627 1.402-1.4v-1.68h1.318c.772 0 1.4-.63 1.4-1.402V1.4c0-.772-.628-1.4-1.4-1.4zm-2.52 18.428c0 .108-.09.2-.2.2H1.4a.203.203 0 0 1-.2-.2V4.482c0-.11.093-.2.2-.2h10.57c.11 0 .2.092.2.2v13.946zm2.72-3.08c0 .107-.092.2-.2.2h-1.318V4.48c0-.772-.628-1.4-1.4-1.4H3.918V1.4c0-.11.09-.2.2-.2h10.57c.107 0 .2.09.2.2v13.945z"/><path d="M10.1 6.173H3.27a.6.6 0 0 0 0 1.2h6.83a.6.6 0 0 0 0-1.2zm0 2.703H3.27a.6.6 0 0 0 0 1.2h6.83a.6.6 0 0 0 0-1.2zm0 2.704H3.27a.6.6 0 0 0 0 1.2h6.83a.6.6 0 0 0 0-1.2zm0 2.703H3.27a.6.6 0 0 0 0 1.2h6.83a.6.6 0 0 0 0-1.2z"/></g></svg>