<?xml version="1.0" standalone="no"?>
<!DOCTYPE svg PUBLIC "-//W3C//DTD SVG 20010904//EN"
 "http://www.w3.org/TR/2001/REC-SVG-20010904/DTD/svg10.dtd">
<svg version="1.0" xmlns="http://www.w3.org/2000/svg"
 width="1024.000000pt" height="1024.000000pt" viewBox="0 0 1024.000000 1024.000000"
 preserveAspectRatio="xMidYMid meet">
<metadata>
Created by potrace 1.11, written by Peter Selinger 2001-2013
</metadata>
<g transform="translate(0.000000,1024.000000) scale(0.100000,-0.100000)"
fill="#000000" stroke="none">
<path d="M0 7233 l0 -3008 51 -45 c28 -25 67 -62 86 -82 20 -21 42 -38 49 -38
7 0 32 -15 56 -34 50 -37 142 -86 164 -86 8 0 17 -6 20 -14 3 -8 21 -17 39
-20 46 -9 125 -45 125 -56 0 -6 10 -10 23 -10 18 0 19 2 7 10 -8 5 -13 10 -10
11 30 8 303 6 360 -3 89 -13 204 -12 208 2 5 13 62 13 62 0 0 -5 14 -10 30
-10 17 0 30 5 30 10 0 17 21 11 44 -11 20 -19 36 -22 152 -25 71 -2 123 -1
117 2 -7 3 -13 14 -13 25 0 14 7 19 30 19 23 0 30 -5 30 -19 0 -13 10 -20 31
-25 44 -8 77 -8 81 2 4 12 148 -7 180 -24 14 -8 43 -14 65 -14 21 0 58 -11 83
-24 43 -22 58 -24 285 -30 251 -7 262 -5 278 37 3 9 14 17 23 17 24 0 74 32
74 48 0 8 6 12 14 9 18 -7 47 24 49 52 1 11 6 21 12 21 5 1 24 19 40 40 17 22
38 42 47 45 14 5 54 59 67 90 7 17 82 147 116 200 18 28 36 61 40 74 4 14 17
35 29 48 12 12 30 40 41 60 11 21 30 56 44 78 48 78 119 231 125 272 4 23 14
49 21 60 8 10 15 26 15 36 0 9 11 22 24 28 14 7 27 22 30 35 4 13 11 24 16 24
6 0 15 10 20 23 6 12 21 40 35 62 13 22 28 49 34 61 5 11 16 27 23 35 8 8 26
39 41 69 15 30 36 69 47 85 11 17 25 41 30 55 6 13 14 27 18 30 4 3 20 31 35
63 16 32 50 97 78 144 27 47 49 88 49 91 0 3 15 28 34 56 18 28 48 78 65 111
18 33 36 67 41 75 98 162 124 208 143 252 11 29 36 74 54 100 17 25 55 93 83
150 29 57 55 108 60 113 14 17 78 185 70 185 -4 0 -19 10 -34 23 -14 12 -49
40 -76 62 -28 22 -72 58 -98 80 -27 22 -70 58 -97 80 -26 22 -55 48 -64 58 -9
11 -39 33 -66 51 -28 18 -57 39 -65 47 -8 8 -25 22 -38 30 -12 9 -52 43 -88
75 -43 38 -85 65 -118 76 -58 20 -96 23 -96 7 0 -5 -4 -8 -9 -5 -5 3 -14 0
-20 -8 -9 -10 -1 -16 36 -28 53 -17 59 -31 16 -36 -15 -2 -38 -13 -50 -24 -19
-18 -30 -19 -77 -14 -31 4 -58 12 -61 17 -4 5 -16 7 -29 3 -17 -4 -25 1 -34
20 -6 14 -16 26 -21 26 -5 0 -26 7 -47 16 l-38 16 34 15 c19 8 48 12 63 9 22
-5 27 -2 25 12 -2 9 2 16 9 15 6 -1 17 5 24 13 10 13 8 19 -14 40 -33 31 -34
42 -3 50 28 7 65 72 56 98 -3 9 -62 73 -131 144 -69 70 -139 145 -154 167 -35
47 -84 107 -130 155 -18 19 -50 58 -72 86 -21 29 -62 77 -90 108 -29 31 -53
61 -53 67 0 12 -52 89 -147 217 -70 94 -98 166 -113 292 -12 96 -7 131 26 188
55 93 115 137 212 154 70 12 98 32 70 50 -9 5 -3 8 17 9 44 2 69 -2 82 -12 7
-6 12 -6 15 2 2 6 29 12 63 14 69 3 105 -3 105 -17 0 -16 28 -38 49 -38 12 0
21 5 21 10 0 6 9 10 21 10 15 0 19 -5 17 -22 -2 -11 3 -23 10 -25 7 -3 12 5
12 22 0 22 3 24 19 15 11 -5 44 -10 74 -10 42 0 56 -4 61 -16 8 -21 3 -26 -29
-26 -14 0 -25 -4 -25 -9 0 -5 13 -9 28 -9 15 0 33 -5 39 -11 13 -13 73 -3 73
12 0 5 -4 9 -10 9 -16 0 -11 37 6 44 32 12 83 6 94 -11 8 -13 13 -14 16 -5 3
6 19 12 34 12 16 0 31 4 34 8 7 12 67 2 71 -12 2 -6 6 -28 10 -48 3 -21 11
-38 17 -38 5 0 19 -11 30 -25 11 -14 27 -25 36 -25 17 -1 68 -37 61 -44 -9 -8
-45 -9 -67 -2 -38 13 -37 -1 0 -17 49 -21 86 -31 69 -19 -12 8 -12 13 0 28 11
14 27 19 67 19 34 0 56 5 61 14 5 8 16 11 25 8 14 -6 15 -10 4 -29 -16 -29
-37 -109 -27 -102 4 2 11 -1 15 -7 9 -16 104 -2 126 18 10 9 16 19 14 22 -3 4
13 5 35 3 31 -3 39 -8 39 -24 0 -12 -8 -26 -17 -33 -15 -11 -15 -13 5 -24 26
-14 28 -28 5 -33 -15 -3 -14 -5 5 -10 12 -3 20 -3 17 2 -11 18 38 18 58 -1 18
-17 22 -17 29 -4 8 13 13 12 41 -8 18 -12 35 -26 38 -31 4 -4 27 -9 52 -11 71
-5 119 -58 85 -94 -11 -11 -8 -12 15 -7 28 7 127 -20 127 -34 0 -5 -9 -12 -20
-15 -11 -3 -20 -11 -20 -16 0 -11 0 -11 76 2 58 10 64 9 83 -10 13 -13 21 -34
21 -56 0 -32 5 -37 63 -69 61 -35 66 -36 113 -25 58 13 89 13 169 1 33 -5 62
-8 64 -6 2 2 -4 15 -13 29 -13 19 -13 25 -3 25 7 0 18 -5 23 -10 6 -6 48 -13
95 -15 63 -4 87 -9 96 -22 10 -13 10 -18 1 -24 -10 -7 -10 -11 0 -21 11 -11
17 -9 33 11 10 13 19 29 19 37 0 8 7 14 15 14 8 0 15 5 15 10 0 6 9 10 20 10
11 0 20 -4 20 -10 0 -5 7 -10 15 -10 11 0 15 -12 15 -52 0 -39 -3 -49 -10 -38
-9 13 -12 13 -23 -1 -6 -8 -21 -19 -32 -24 -18 -8 -18 -9 7 -13 18 -2 35 4 50
17 12 12 31 21 43 21 20 0 55 -31 55 -49 0 -13 31 -71 38 -71 19 1 30 16 22
30 -15 23 -12 60 5 60 14 0 19 13 27 65 2 11 11 19 20 19 10 -1 17 1 16 5 -4
33 5 50 29 56 17 4 29 2 31 -4 2 -6 12 -11 23 -11 12 0 23 -10 29 -26 9 -23
15 -26 40 -20 20 3 51 -2 88 -16 31 -12 59 -23 62 -23 37 -7 76 -19 80 -24 3
-3 19 -11 36 -17 27 -10 561 -358 574 -374 3 -4 34 -25 70 -48 36 -22 90 -59
121 -81 31 -23 61 -41 66 -41 6 0 18 -9 29 -21 10 -11 32 -26 49 -33 22 -9 40
-31 63 -76 18 -34 50 -85 70 -114 20 -28 46 -67 56 -86 20 -37 77 -127 107
-171 24 -36 15 -42 -27 -17 -42 25 -88 80 -143 174 -23 40 -51 80 -61 89 -11
10 -20 24 -20 32 0 21 -88 104 -145 138 -41 24 -102 67 -160 113 -6 5 -24 17
-40 28 -17 10 -34 22 -40 27 -24 18 -83 58 -125 84 -43 26 -121 80 -205 142
-22 16 -52 36 -65 43 -31 16 -88 56 -114 80 -23 21 -79 48 -98 48 -8 0 -39 8
-69 19 -81 27 -135 35 -137 19 -1 -7 -4 -34 -8 -60 l-7 -48 57 0 c58 0 86 -14
86 -43 0 -8 7 -17 15 -21 25 -9 17 -21 -26 -40 -32 -14 -46 -16 -64 -8 -16 8
-35 8 -61 1 -20 -6 -59 -9 -85 -7 l-49 3 0 -41 c0 -22 4 -44 10 -50 6 -6 5
-15 -1 -24 -8 -12 -12 -12 -16 -2 -10 26 -123 73 -123 52 0 -10 106 -90 119
-90 5 0 16 -6 24 -14 9 -9 24 -12 43 -8 28 7 29 8 12 25 -10 9 -21 17 -25 16
-4 0 -9 5 -11 13 -3 11 -2 11 6 0 7 -10 11 -10 22 3 18 22 39 19 66 -11 27
-28 31 -44 11 -44 -7 0 -22 -6 -32 -14 -18 -13 -18 -14 5 -32 13 -11 47 -40
77 -66 29 -27 60 -48 68 -48 7 0 20 -8 27 -18 7 -11 22 -24 33 -30 12 -6 27
-23 35 -39 18 -34 54 -66 100 -90 19 -10 49 -29 66 -43 17 -14 44 -33 60 -42
45 -27 64 -41 97 -70 32 -29 76 -42 91 -27 16 15 40 10 54 -11 7 -11 23 -20
36 -20 16 0 27 -7 31 -20 8 -27 -3 -43 -26 -37 -11 3 -19 1 -19 -5 0 -5 18 -7
45 -2 36 5 45 3 45 -9 0 -8 9 -17 21 -20 14 -4 18 -10 13 -18 -5 -9 -2 -10 9
-6 9 3 23 -1 32 -9 8 -8 19 -13 24 -10 12 8 43 -23 35 -35 -7 -13 19 -7 28 6
9 11 54 -36 63 -66 4 -11 12 -19 19 -19 7 0 19 -11 26 -25 10 -18 25 -27 51
-31 44 -7 60 -35 35 -60 -13 -12 -13 -19 -4 -34 8 -12 15 -15 19 -8 4 6 16 -2
29 -20 12 -17 31 -33 42 -35 11 -3 17 -10 14 -15 -6 -11 38 -52 57 -52 6 0 25
-13 40 -30 29 -30 47 -38 47 -20 0 23 27 -4 44 -46 19 -48 79 -111 155 -167
24 -18 60 -50 80 -72 63 -70 123 -125 135 -125 7 0 25 -16 40 -35 16 -19 33
-32 39 -28 6 3 7 1 3 -5 -4 -8 52 -72 146 -166 169 -170 274 -283 340 -366
142 -177 315 -398 390 -499 15 -20 44 -67 65 -104 21 -38 49 -85 62 -105 85
-128 181 -379 181 -473 0 -23 5 -70 11 -104 31 -182 -109 -273 -321 -210 -25
7 -58 20 -75 29 -16 9 -43 16 -60 16 -48 1 -144 25 -230 60 -44 17 -124 47
-179 66 -54 19 -110 40 -125 48 -25 13 -132 63 -216 101 -58 26 -519 246 -595
284 -88 44 -296 156 -380 204 -58 33 -148 83 -200 110 -52 27 -117 64 -145 82
-27 18 -93 56 -145 85 -52 29 -114 65 -136 80 -23 15 -52 31 -65 35 -33 10
-59 35 -59 55 0 10 9 29 21 44 28 36 67 35 99 -4 14 -16 30 -30 37 -30 7 0 13
-4 13 -10 0 -5 6 -10 14 -10 7 0 27 -13 44 -30 23 -22 42 -30 67 -30 32 0 40
-7 36 -32 -1 -10 56 -39 72 -37 29 4 39 -3 53 -36 13 -33 55 -63 62 -45 4 11
44 -1 60 -17 8 -7 12 -19 10 -25 -6 -16 21 -44 51 -53 14 -4 29 -11 35 -16 9
-7 134 -72 241 -126 11 -5 63 -32 115 -58 288 -148 366 -185 392 -185 16 0 35
-9 46 -21 9 -11 40 -32 67 -45 57 -27 87 -45 96 -58 4 -5 30 -8 58 -8 29 1 51
-3 51 -9 0 -5 4 -7 10 -4 5 3 15 -3 22 -15 7 -11 18 -20 24 -20 7 0 14 -7 18
-15 3 -8 16 -15 30 -15 14 0 28 -4 31 -10 3 -5 18 -7 33 -4 17 3 34 -1 47 -11
11 -9 14 -14 8 -10 -7 3 -13 3 -13 -1 0 -11 34 -33 51 -34 9 0 27 -8 40 -18
13 -11 44 -22 69 -25 25 -3 80 -18 123 -32 43 -14 89 -25 103 -25 15 0 45 -13
68 -28 76 -52 190 -46 198 10 2 18 10 24 36 26 17 2 32 7 32 13 0 5 8 9 19 9
16 0 19 10 24 78 2 42 12 91 20 107 21 41 22 62 8 115 -12 46 -81 195 -111
240 -10 14 -39 66 -65 115 -88 165 -81 159 -252 231 -210 89 -563 269 -563
287 0 14 44 -4 71 -29 20 -19 35 -24 72 -23 25 1 52 -3 60 -9 13 -11 158 -88
337 -179 82 -42 130 -49 130 -21 0 6 -35 47 -77 91 -43 44 -89 92 -103 106
-14 14 -47 45 -73 68 -30 26 -43 43 -35 46 8 3 -9 26 -47 63 -33 32 -140 134
-239 228 -98 94 -220 212 -270 261 -110 108 -274 259 -286 263 -5 2 -24 18
-43 36 -19 18 -64 54 -99 80 -34 26 -87 70 -116 97 -29 27 -58 46 -64 43 -7
-5 -9 -1 -5 9 5 13 1 17 -17 17 -17 0 -31 11 -46 35 -12 19 -28 35 -37 35 -8
0 -28 11 -45 25 -16 14 -36 25 -44 25 -8 0 -14 5 -14 11 0 5 -5 7 -11 4 -10
-7 -49 30 -49 46 0 5 -11 11 -25 15 -14 3 -25 10 -25 15 0 5 -13 9 -29 9 -18
0 -41 10 -58 26 -27 25 -27 26 -8 40 19 14 19 15 -10 39 -17 13 -42 27 -56 30
-15 3 -29 14 -32 24 -4 17 -81 85 -197 176 -28 22 -57 45 -63 50 -7 6 -39 27
-71 49 -33 21 -64 43 -70 47 -28 23 -147 107 -199 141 -68 44 -126 58 -146 34
-7 -9 -21 -16 -30 -16 -22 0 -140 -121 -123 -127 13 -5 17 -63 3 -63 -11 0
-178 -265 -202 -320 -5 -13 -13 -27 -17 -30 -9 -6 -63 -93 -85 -135 -38 -75
-54 -102 -74 -122 -12 -12 -34 -45 -47 -72 -14 -27 -30 -52 -36 -56 -6 -3 -17
-23 -26 -43 -14 -35 -71 -124 -106 -167 -9 -11 -35 -44 -57 -72 -23 -29 -46
-53 -51 -53 -6 0 -10 -6 -10 -13 0 -7 -11 -28 -25 -47 -14 -19 -25 -42 -25
-52 0 -10 -7 -18 -15 -18 -8 0 -15 -7 -15 -15 0 -12 -34 -70 -58 -100 -5 -6
-7 -16 -4 -23 2 -8 -5 -23 -16 -35 -11 -12 -25 -33 -32 -47 -21 -42 -102 -160
-110 -160 -4 0 -15 -18 -25 -40 -10 -22 -24 -40 -31 -40 -7 0 -15 -13 -19 -30
-4 -17 -13 -30 -21 -30 -9 0 -12 -5 -9 -11 9 -14 -24 -49 -47 -49 -11 0 -18
-7 -18 -19 0 -29 -11 -51 -25 -51 -7 0 -18 -21 -26 -47 -15 -56 -45 -115 -65
-126 -8 -4 -14 -14 -14 -21 0 -8 -7 -16 -15 -20 -8 -3 -15 -13 -15 -21 0 -29
-42 -120 -65 -140 -13 -11 -26 -31 -30 -44 -4 -13 -25 -41 -46 -62 -24 -23
-39 -48 -39 -62 0 -13 -20 -50 -45 -81 -25 -32 -45 -67 -45 -77 0 -10 -6 -22
-12 -26 -7 -4 -28 -30 -47 -56 -32 -47 -33 -49 -20 -94 11 -42 11 -47 -6 -59
-17 -13 -17 -14 -2 -14 15 0 50 43 60 74 2 5 12 4 23 -2 16 -8 24 -8 33 1 6 6
25 12 42 13 23 1 33 -4 45 -27 17 -34 23 -35 57 -9 32 25 44 10 21 -25 -9 -14
-14 -25 -11 -25 13 0 -41 -100 -76 -140 -20 -24 -37 -52 -37 -62 0 -11 -5 -16
-10 -13 -6 3 -18 -8 -28 -26 -9 -18 -26 -43 -38 -55 -12 -12 -24 -29 -27 -37
-8 -21 -56 -18 -68 4 -5 11 -19 19 -29 19 -32 0 -112 -42 -117 -61 -5 -16 -31
-34 -40 -26 -5 6 23 79 46 119 24 40 26 118 4 125 -6 3 -26 -9 -44 -26 -17
-17 -35 -28 -40 -25 -4 2 -16 -10 -25 -28 -9 -18 -20 -35 -23 -38 -10 -7 -161
-237 -161 -245 0 -3 -17 -32 -37 -63 -52 -79 -60 -92 -77 -129 -8 -18 -19 -33
-23 -33 -5 0 -19 -19 -31 -43 -12 -23 -26 -49 -31 -57 -23 -39 -53 -130 -34
-105 10 13 53 33 78 37 11 2 23 10 27 18 14 31 8 -27 -7 -70 -8 -23 -15 -47
-15 -52 0 -16 53 1 72 22 9 11 19 20 22 20 12 0 6 -28 -9 -40 -10 -8 -13 -21
-9 -39 8 -32 27 -55 22 -26 -2 13 4 20 17 23 11 2 25 9 30 15 6 7 24 20 40 29
17 9 41 38 55 65 17 33 31 48 45 48 16 0 20 -7 20 -32 0 -18 3 -33 7 -33 11 0
58 46 58 57 0 16 45 61 66 65 10 1 29 24 42 50 21 41 23 50 11 65 -11 13 -11
17 -1 20 6 3 12 17 12 31 0 56 20 102 51 117 16 9 46 42 66 73 20 31 42 61 50
65 7 4 13 14 13 22 0 8 11 17 25 21 16 4 25 13 25 25 0 19 23 51 73 99 15 15
27 32 27 39 0 6 9 11 19 11 11 0 22 6 24 13 4 9 6 9 6 -1 1 -7 5 -11 11 -7 5
3 19 0 32 -7 46 -26 49 -49 11 -84 -16 -14 -33 -22 -43 -19 -13 4 -19 -1 -24
-18 -3 -13 -19 -39 -36 -58 -21 -24 -29 -41 -25 -57 6 -25 -20 -72 -41 -72 -8
0 -14 -6 -14 -13 0 -14 -135 -179 -151 -185 -5 -2 -9 -10 -9 -18 0 -8 -18 -32
-40 -54 -22 -22 -40 -43 -40 -46 0 -3 -15 -24 -33 -47 -19 -23 -44 -67 -57
-97 -12 -30 -29 -65 -37 -77 -9 -14 -12 -30 -7 -40 4 -10 8 -22 8 -28 1 -5 18
-9 39 -8 24 1 35 -2 31 -9 -4 -7 -2 -8 4 -4 6 4 9 13 5 21 -3 10 -1 13 9 10
18 -7 43 20 33 35 -3 5 1 13 9 16 9 3 16 12 16 20 0 8 5 13 12 12 6 -2 18 9
25 25 8 15 18 27 24 27 5 0 9 4 9 10 0 5 20 31 45 57 24 26 45 53 45 60 0 6 8
18 19 25 10 7 32 34 49 59 17 25 47 63 68 85 20 21 48 57 62 79 15 22 41 57
59 78 18 20 33 45 33 55 0 14 2 15 10 2 8 -13 10 -12 10 3 0 9 4 17 9 17 5 0
8 8 7 17 0 11 7 19 20 21 16 2 24 12 28 35 4 20 17 39 36 52 17 11 32 27 35
36 3 9 20 30 38 47 17 17 46 48 64 69 18 21 66 77 108 125 41 47 75 91 75 96
0 5 20 32 45 60 25 27 45 53 45 58 0 4 21 30 48 59 26 28 73 82 105 120 32 39
69 82 82 97 13 15 32 42 41 60 9 18 23 38 30 43 7 6 36 39 63 75 28 36 57 72
63 80 7 8 37 44 66 80 58 70 89 90 99 63 3 -8 1 -24 -5 -34 -7 -10 -12 -25
-12 -33 0 -8 -8 -17 -18 -20 -10 -4 -26 -22 -35 -41 -9 -19 -20 -35 -25 -35
-5 0 -16 -16 -25 -35 -9 -19 -21 -35 -27 -35 -20 0 -49 -40 -56 -77 -5 -28
-22 -52 -64 -93 -60 -58 -79 -86 -86 -128 -3 -15 -10 -30 -16 -33 -17 -11 -1
-39 21 -39 20 0 51 24 51 41 0 5 12 11 28 15 59 13 62 15 62 45 0 25 4 29 28
29 15 0 53 7 85 15 58 15 91 12 84 -9 -2 -6 -12 -12 -23 -14 -50 -7 -64 -14
-64 -27 0 -8 -4 -15 -10 -15 -5 0 -10 -15 -10 -33 0 -21 -8 -41 -20 -52 -11
-10 -20 -24 -20 -32 0 -7 -4 -13 -10 -13 -5 0 -25 -24 -44 -52 -19 -29 -80
-100 -135 -158 -55 -58 -101 -112 -101 -120 1 -8 28 14 62 50 34 36 71 72 83
80 12 8 61 59 109 113 65 71 95 97 112 97 32 0 32 -32 1 -57 -13 -10 -30 -36
-36 -56 -8 -23 -23 -43 -37 -49 -13 -6 -26 -20 -30 -32 -7 -24 -35 -89 -71
-163 -21 -44 -29 -52 -61 -58 -42 -8 -52 -18 -52 -58 0 -19 -4 -27 -12 -24 -7
2 -17 -4 -23 -14 -5 -10 -26 -28 -45 -41 -23 -16 -37 -35 -43 -59 -5 -21 -39
-73 -82 -126 -40 -50 -80 -105 -89 -122 -9 -17 -25 -35 -36 -41 -11 -6 -29
-28 -39 -48 -11 -21 -31 -43 -45 -50 -14 -6 -26 -16 -26 -22 0 -6 5 -8 10 -5
6 3 10 2 10 -3 0 -5 -11 -10 -25 -10 -14 0 -34 -7 -44 -16 -10 -9 -25 -14 -35
-10 -9 4 -16 1 -16 -6 0 -16 -33 -58 -102 -129 -32 -33 -58 -63 -58 -68 0 -5
-34 -45 -75 -88 -41 -44 -75 -88 -75 -97 0 -11 -8 -18 -20 -18 -22 0 -26 10
-11 26 6 5 13 25 16 44 6 35 73 172 87 178 5 2 8 14 8 26 0 12 16 48 35 81 48
79 51 96 20 118 -25 18 -25 18 -25 -5 0 -26 -27 -107 -41 -124 -5 -6 -16 -33
-24 -60 -8 -27 -35 -89 -60 -139 -25 -49 -45 -95 -45 -101 0 -7 -6 -14 -14
-17 -7 -3 -16 -25 -20 -49 -8 -50 -69 -163 -97 -181 -11 -7 -41 -42 -66 -79
-26 -38 -50 -68 -54 -68 -4 0 -11 -10 -15 -22 -4 -13 -15 -34 -26 -47 -13 -17
-17 -35 -14 -62 3 -28 -1 -42 -15 -55 -25 -23 -26 -109 -2 -144 9 -13 20 -42
24 -64 9 -51 32 -116 40 -116 14 0 45 -37 62 -73 18 -39 26 -51 65 -92 29 -31
42 -67 42 -113 0 -46 11 -65 36 -60 15 2 21 -6 27 -37 5 -22 13 -48 18 -57 5
-10 9 -23 9 -28 0 -6 9 -30 20 -52 11 -23 20 -46 20 -51 0 -5 18 -29 40 -53
33 -36 40 -51 40 -83 0 -22 6 -44 13 -48 23 -15 45 -83 49 -153 1 -8 12 -26
25 -40 40 -41 55 -79 48 -116 -6 -37 8 -74 29 -74 10 0 16 -23 21 -80 5 -58
11 -80 21 -80 10 0 14 -14 14 -49 0 -41 4 -52 29 -72 23 -19 30 -35 36 -83 9
-78 13 -86 40 -86 26 0 33 -14 37 -73 2 -30 7 -39 25 -43 13 -4 23 -12 23 -19
0 -7 7 -15 15 -19 8 -3 15 -16 15 -29 0 -27 16 -43 80 -77 25 -13 56 -34 69
-47 13 -13 30 -23 37 -23 7 0 23 -13 36 -30 12 -16 31 -33 41 -36 11 -4 30
-17 42 -30 12 -13 29 -24 37 -24 9 0 21 -6 27 -14 6 -7 28 -16 49 -18 20 -3
55 -18 77 -33 22 -15 71 -42 108 -61 37 -19 65 -39 62 -44 -3 -6 6 -10 20 -10
14 0 24 -4 21 -8 -3 -5 0 -9 7 -9 21 0 107 -35 107 -44 0 -4 16 -13 35 -19 19
-6 35 -15 35 -18 0 -4 16 -25 35 -46 19 -21 32 -43 29 -47 -3 -5 0 -9 6 -9 6
0 8 -5 5 -10 -4 -6 1 -22 10 -36 14 -22 14 -26 1 -39 -8 -8 -25 -16 -37 -18
-13 -2 -25 -9 -27 -15 -3 -9 542 -12 2232 -12 l2236 0 0 5120 0 5120 -5120 0
-5120 0 0 -3007z m1795 2691 c33 -30 23 -47 -23 -38 -27 6 -32 11 -32 35 0 36
18 37 55 3z m2123 -24 c68 -10 129 -23 135 -28 7 -5 34 -10 62 -11 27 -2 52
-6 55 -11 3 -4 26 -10 52 -14 26 -4 50 -11 53 -16 3 -5 45 -8 93 -7 98 1 112
-4 112 -38 0 -31 40 -44 76 -24 19 10 27 10 37 0 9 -9 9 -14 -3 -21 -18 -11
-14 -15 31 -33 38 -16 59 -13 59 9 0 8 7 14 15 14 8 0 15 -7 15 -15 0 -8 6
-15 13 -15 8 0 7 -4 -3 -10 -12 -7 -8 -10 15 -10 20 0 26 3 17 9 -9 5 -1 10
25 14 61 11 76 9 69 -8 -4 -10 3 -17 22 -21 63 -13 106 -57 65 -67 -15 -3 -14
-6 7 -15 19 -8 28 -7 36 4 12 15 74 20 74 5 0 -16 -30 -33 -50 -28 -28 7 -25
0 8 -17 31 -16 81 -10 89 10 3 8 16 14 28 14 13 0 25 4 27 9 2 4 13 12 26 15
19 6 22 4 22 -19 0 -31 31 -46 103 -51 26 -2 52 -6 57 -9 13 -8 13 -92 0 -100
-19 -12 -10 -22 40 -45 60 -28 72 -22 29 15 -43 35 -31 59 33 63 36 2 49 -2
72 -23 15 -14 35 -25 46 -25 17 0 80 -45 88 -62 2 -5 10 -8 18 -8 18 0 18 -31
-1 -56 -9 -12 -17 -15 -22 -9 -5 6 -28 17 -53 25 -25 7 -53 20 -62 28 -9 8
-22 11 -27 7 -6 -3 -11 -2 -11 3 0 5 -9 12 -21 15 -12 3 -19 1 -16 -6 2 -6 35
-22 73 -36 39 -15 81 -33 95 -42 13 -9 51 -26 83 -38 53 -20 61 -20 68 -7 5 9
19 16 31 16 13 0 30 9 40 20 9 11 23 20 31 20 8 0 24 11 37 25 13 13 30 25 37
25 12 0 66 -25 152 -72 54 -29 144 -48 228 -48 95 0 344 -46 360 -67 6 -9 12
-20 12 -24 0 -4 14 -4 30 1 30 9 38 3 21 -15 -5 -6 -12 -79 -16 -162 l-6 -153
24 -22 c13 -13 30 -40 38 -60 16 -46 45 -51 55 -10 13 48 48 59 82 25 7 -7 19
-13 26 -13 7 0 37 -21 67 -46 38 -33 55 -56 59 -78 4 -24 10 -31 28 -30 12 0
22 -4 22 -10 0 -14 78 -91 92 -91 6 0 13 -6 16 -14 3 -9 0 -11 -7 -6 -7 4 -18
-1 -26 -11 -14 -20 -16 -20 -62 -23 l-28 -2 28 -25 c19 -16 36 -23 48 -19 11
4 19 2 19 -4 0 -6 10 -11 23 -11 12 0 30 -8 38 -17 25 -27 58 -53 69 -53 6 0
10 -4 10 -8 0 -5 11 -14 25 -20 14 -7 30 -22 36 -34 26 -57 43 -81 70 -97 16
-9 29 -19 29 -23 0 -5 5 -8 11 -8 6 0 39 -28 74 -62 34 -35 75 -72 90 -83 15
-11 51 -42 79 -70 29 -27 91 -81 139 -120 47 -38 87 -74 87 -80 1 -5 18 -23
38 -39 20 -17 53 -48 72 -70 36 -43 114 -106 130 -106 6 0 10 -6 10 -14 0 -17
27 -28 50 -21 20 6 28 -8 25 -45 -2 -20 40 -68 218 -250 262 -268 337 -347
437 -460 41 -46 96 -107 123 -136 26 -28 47 -56 47 -62 0 -6 3 -12 8 -14 27
-12 204 -248 326 -437 127 -195 154 -267 157 -426 2 -79 -28 -161 -73 -203
-32 -29 -149 -70 -214 -76 -27 -2 -57 -7 -66 -11 -27 -11 -50 2 -46 26 2 17
18 26 83 45 44 13 92 26 108 29 63 13 121 103 147 231 14 67 -4 135 -55 204
-19 26 -35 51 -35 54 0 4 -8 19 -19 34 -10 15 -45 67 -77 117 -32 49 -76 107
-96 130 -21 22 -55 62 -76 89 -20 27 -56 68 -79 91 -24 22 -43 46 -43 51 0 6
-10 19 -21 30 -12 10 -71 75 -132 144 -258 293 -647 710 -663 710 -6 0 -36 29
-65 64 -30 36 -57 65 -60 65 -3 1 -39 34 -81 74 -284 272 -390 371 -438 411
-30 25 -71 58 -90 74 -19 16 -48 37 -65 48 -16 10 -33 24 -37 30 -4 6 -21 17
-38 24 -16 7 -30 16 -30 20 0 8 -64 58 -159 124 -31 21 -60 45 -64 52 -5 8
-12 12 -18 9 -5 -4 -9 -3 -9 2 0 4 -17 19 -38 32 -20 14 -47 34 -59 44 -12 11
-31 25 -42 31 -11 6 -59 38 -108 71 -48 33 -92 62 -98 64 -5 2 -28 20 -50 40
-59 55 -86 70 -112 60 -12 -4 -61 -12 -110 -18 -83 -9 -91 -8 -139 15 -28 13
-61 24 -72 24 -14 0 -27 11 -36 29 -17 32 -34 41 -76 41 -34 0 -50 23 -50 70
0 29 -2 31 -32 29 -34 -2 -98 19 -98 33 0 4 -12 8 -27 8 -14 0 -23 3 -20 6 3
4 0 16 -8 28 -8 11 -15 31 -15 43 0 20 -5 23 -37 24 -21 1 -43 2 -50 3 -15 1
-53 46 -53 63 0 7 -9 13 -20 13 -12 0 -34 10 -50 22 -23 17 -27 25 -19 40 14
26 -2 50 -48 74 -21 10 -39 22 -41 27 -2 4 -9 7 -16 7 -7 0 -39 13 -72 28 -32
15 -122 58 -199 94 -77 37 -160 76 -185 86 -25 11 -61 26 -80 34 -19 9 -53 21
-75 28 -22 6 -53 18 -70 26 -41 19 -188 78 -200 80 -5 1 -28 10 -50 19 -86 38
-469 165 -523 175 -31 5 -91 17 -132 25 -41 9 -86 18 -100 21 -14 3 -96 7
-183 10 l-158 4 -35 -32 c-19 -18 -34 -38 -34 -45 0 -7 -4 -13 -9 -13 -5 0
-12 -20 -15 -44 -6 -37 -2 -53 28 -111 19 -38 33 -72 31 -76 -3 -3 -19 -4 -36
0 -25 5 -37 16 -55 51 -54 104 -86 187 -91 235 -5 45 -2 55 17 73 13 12 48 28
79 38 31 9 61 18 66 19 36 12 277 2 383 -15z m-1966 -76 c35 -44 107 -107 137
-121 22 -9 47 -12 69 -8 33 6 34 5 28 -17 -22 -76 -21 -81 31 -115 27 -18 69
-54 94 -82 74 -82 72 -79 47 -92 -13 -7 -29 -19 -37 -26 -12 -13 -21 -8 -64
36 -43 42 -49 52 -38 65 11 13 11 16 -3 16 -9 0 -46 -36 -83 -80 -79 -93 -97
-98 -139 -42 -16 20 -42 49 -58 64 -37 34 -29 47 10 16 16 -13 39 -29 52 -36
20 -11 22 -10 22 8 0 11 4 20 9 20 6 0 9 8 9 18 -1 9 9 34 21 55 23 36 44 47
56 27 3 -5 13 -10 21 -10 19 0 18 16 -5 39 -10 10 -21 29 -25 42 -3 13 -25 38
-49 56 -60 45 -167 148 -167 161 0 24 45 28 62 6z m420 -44 c-2 -16 -15 -36
-28 -45 -16 -10 -24 -25 -24 -44 0 -34 -20 -45 -46 -26 -13 8 -19 24 -18 46 1
28 5 35 25 37 13 2 29 9 34 15 6 7 21 20 35 29 14 9 25 17 26 17 0 1 -1 -12
-4 -29z m1723 -65 c0 -5 -11 -12 -25 -13 -14 -2 -32 -10 -41 -18 -23 -20 -31
-6 -12 23 12 18 23 23 47 21 17 -2 31 -7 31 -13z m-113 -177 c46 -78 45 -98
-8 -98 -25 0 -41 -7 -54 -22 -23 -28 -32 -21 -59 52 -33 87 -24 117 25 85 14
-9 28 -15 30 -13 8 9 -21 55 -40 64 -22 10 -39 60 -30 84 8 20 82 -63 136
-152z m-1547 -203 c102 -42 95 -37 80 -73 -8 -18 -22 -35 -32 -39 -10 -3 -29
-15 -42 -25 -13 -10 -34 -18 -46 -18 -12 0 -28 -7 -35 -15 -15 -18 -39 -19
-61 -2 -28 22 -30 47 -6 71 26 26 24 43 -7 68 -11 9 -17 20 -13 24 4 4 13 2
19 -4 7 -7 19 -12 29 -12 9 0 28 -11 43 -25 26 -24 46 -32 46 -19 0 4 -16 20
-35 37 -46 39 -47 61 -3 51 18 -3 46 -12 63 -19z m1125 -26 c19 -5 76 -14 125
-19 76 -7 92 -6 102 7 11 15 13 15 19 0 3 -8 4 -26 2 -39 -3 -21 -7 -23 -55
-21 -28 1 -78 11 -110 22 -32 10 -79 22 -105 26 -31 5 -48 12 -48 21 0 17 23
18 70 3z m752 -283 c13 -8 46 -20 73 -27 52 -12 75 -25 75 -40 0 -12 -57 -12
-64 0 -3 4 -34 18 -68 30 -108 38 -111 40 -98 56 12 15 39 9 82 -19z m2528 30
c0 -3 -4 -8 -10 -11 -5 -3 -10 -1 -10 4 0 6 5 11 10 11 6 0 10 -2 10 -4z
m-2256 -157 c-3 -5 -10 -7 -15 -3 -5 3 -7 10 -3 15 3 5 10 7 15 3 5 -3 7 -10
3 -15z m496 -55 c0 -3 -11 -20 -24 -37 -13 -18 -35 -52 -48 -77 -19 -36 -29
-44 -48 -42 -32 3 -128 53 -134 68 -6 16 54 31 63 16 11 -18 55 -30 78 -21 12
4 32 26 45 48 20 36 32 45 61 50 4 0 7 -2 7 -5z m1370 -284 c0 -5 -4 -10 -10
-10 -5 0 -10 5 -10 10 0 6 5 10 10 10 6 0 10 -4 10 -10z m-703 -142 c-3 -8 -6
-5 -6 6 -1 11 2 17 5 13 3 -3 4 -12 1 -19z m-17 2 c0 -5 -4 -10 -10 -10 -5 0
-10 5 -10 10 0 6 5 10 10 10 6 0 10 -4 10 -10z m487 -366 c-3 -3 -12 -4 -19
-1 -8 3 -5 6 6 6 11 1 17 -2 13 -5z m89 -45 c8 -14 -18 -31 -30 -19 -9 9 0 30
14 30 5 0 12 -5 16 -11z m1030 -730 c29 -31 29 -31 4 -24 -14 4 -26 12 -28 16
-2 5 -10 9 -18 9 -15 0 -19 12 -7 23 11 12 18 8 49 -24z m-1136 -375 c0 -22
-42 -74 -60 -74 -24 0 -19 30 11 75 32 48 48 48 49 -1z m-416 -275 c41 -34 46
-42 46 -66 0 -16 -7 -27 -20 -30 -14 -4 -20 -14 -20 -33 0 -50 -12 -90 -27
-90 -11 0 -13 -7 -9 -24 3 -14 2 -36 -4 -51 -8 -21 -16 -26 -38 -23 -22 2 -28
9 -30 33 -2 24 -10 34 -32 42 -33 12 -43 53 -14 53 12 0 10 7 -11 31 -16 20
-24 38 -19 48 3 9 12 29 18 46 6 16 22 43 36 58 22 25 30 28 66 24 23 -2 49
-11 58 -18z m296 -104 c17 -21 6 -41 -24 -47 -32 -6 -36 -1 -29 35 6 30 33 37
53 12z m-472 -274 c17 -17 32 -33 32 -37 0 -14 -40 -71 -85 -119 -25 -27 -48
-60 -52 -73 -7 -31 -42 -43 -69 -25 -20 13 -25 11 -62 -27 -37 -35 -62 -50
-62 -35 0 9 24 49 36 60 7 5 17 27 24 48 6 20 16 37 21 37 5 0 9 6 9 14 0 8
22 36 50 63 27 26 50 53 50 59 0 11 58 64 70 64 3 0 20 -13 38 -29z m3440
-363 c19 -19 14 -28 -13 -28 -14 0 -25 -4 -25 -10 0 -5 16 -10 35 -10 37 0 43
-8 23 -28 -18 -18 -42 -15 -71 9 -15 11 -32 19 -39 17 -23 -4 -68 12 -68 25 0
26 25 37 85 37 34 0 66 -5 73 -12z m-3281 -140 c-3 -8 -6 -5 -6 6 -1 11 2 17
5 13 3 -3 4 -12 1 -19z m-402 -49 c4 -5 9 -23 11 -38 4 -23 -2 -34 -30 -59
-33 -29 -100 -52 -113 -39 -9 10 26 57 42 57 10 0 15 10 15 31 0 45 56 80 75
48z m-242 -101 c4 -13 16 -28 29 -33 31 -14 28 -63 -6 -116 -22 -33 -31 -38
-51 -33 -21 5 -25 2 -30 -30 -4 -20 -12 -36 -17 -36 -12 0 -67 -57 -70 -73 -1
-7 4 -23 11 -35 7 -13 11 -25 9 -26 -2 -2 -14 -10 -27 -19 l-24 -16 24 -10
c13 -5 32 -12 42 -15 30 -9 20 -49 -18 -75 -19 -13 -35 -26 -35 -30 0 -4 -13
-21 -30 -39 -16 -18 -30 -37 -30 -42 0 -13 -52 -68 -89 -93 -17 -12 -42 -42
-54 -67 -19 -38 -28 -46 -65 -55 -24 -5 -49 -18 -56 -28 -12 -16 -15 -15 -32
8 -20 27 -52 33 -72 13 -18 -18 -15 -41 8 -66 25 -26 25 -28 0 -55 -19 -20
-22 -21 -63 -6 -37 13 -42 17 -39 43 2 17 -3 33 -13 40 -36 26 13 64 69 54 24
-5 27 1 51 82 8 27 26 58 40 70 9 8 21 24 25 35 5 12 23 29 41 38 31 14 35 14
51 0 12 -11 15 -24 11 -45 -4 -20 -1 -33 8 -39 18 -11 59 -12 59 0 0 5 14 22
31 39 27 27 31 36 26 66 -5 32 -1 40 41 82 26 25 47 49 47 52 1 4 5 17 9 30 9
26 -6 50 -41 63 -43 16 -49 50 -19 114 14 32 42 75 61 96 19 22 35 46 35 54 0
8 11 22 24 30 13 9 29 29 36 45 11 26 44 47 76 49 7 1 14 -9 17 -21z m777
-126 c0 -28 -3 -33 -10 -22 -13 20 -13 73 0 65 6 -3 10 -23 10 -43z m680 -52
c0 -5 -4 -10 -10 -10 -5 0 -10 5 -10 10 0 6 5 10 10 10 6 0 10 -4 10 -10z
m-1806 -144 c-3 -15 -14 -30 -23 -34 -18 -7 -41 -27 -41 -37 0 -4 -9 -19 -20
-35 -11 -15 -16 -30 -13 -34 4 -4 -1 -4 -11 0 -13 5 -7 -10 22 -49 23 -31 40
-62 37 -69 -7 -18 -119 -15 -142 3 -10 8 -26 24 -37 37 -11 14 -25 21 -33 17
-11 -4 -13 -1 -9 11 3 8 6 25 6 36 0 11 8 22 20 25 11 3 20 12 20 20 0 24 79
94 117 105 26 7 38 18 50 45 l15 36 24 -25 c20 -19 24 -31 18 -52z m898 69 c9
-4 13 -16 10 -34 -2 -16 1 -37 6 -47 6 -11 7 -36 3 -59 l-8 -40 -7 30 c-4 17
-15 50 -25 75 -24 63 -17 89 21 75z m1025 -27 c-3 -8 -6 -5 -6 6 -1 11 2 17 5
13 3 -3 4 -12 1 -19z m-1578 3 c18 -12 6 -42 -14 -35 -8 3 -15 15 -15 25 0 21
8 23 29 10z m2401 -331 c8 -5 12 -12 9 -15 -8 -8 -39 5 -39 16 0 11 11 11 30
-1z m-3056 -72 c15 -24 -5 -42 -38 -34 -25 6 -35 33 -19 50 12 12 45 2 57 -16z
m1083 -10 c-3 -7 -5 -2 -5 12 0 14 2 19 5 13 2 -7 2 -19 0 -25z m-1157 -80
c40 -29 43 -78 5 -78 -28 0 -95 30 -95 42 0 16 35 57 48 58 7 0 26 -10 42 -22z
m1210 12 c0 -5 -4 -10 -10 -10 -5 0 -10 5 -10 10 0 6 5 10 10 10 6 0 10 -4 10
-10z m3790 -548 c0 -13 -12 -22 -22 -16 -10 6 -1 24 13 24 5 0 9 -4 9 -8z
m-5360 -20 c0 -13 -12 -22 -22 -16 -10 6 -1 24 13 24 5 0 9 -4 9 -8z m5685 -2
c3 -5 1 -10 -4 -10 -6 0 -11 5 -11 10 0 6 2 10 4 10 3 0 8 -4 11 -10z m90 -50
c10 -11 48 -41 84 -65 75 -50 126 -94 118 -101 -9 -9 -62 21 -108 61 -26 22
-65 55 -88 73 -39 31 -52 52 -33 52 5 0 17 -9 27 -20z m-6000 -49 c-3 -6 -14
-11 -23 -11 -13 0 -13 2 4 14 21 15 30 14 19 -3z m5875 -13 c0 -16 -25 -8 -38
12 -11 18 -10 19 13 8 14 -6 25 -15 25 -20z m-5806 -23 c16 -24 16 -27 -5 -56
-12 -17 -32 -35 -46 -40 -23 -8 -76 -5 -95 7 -15 10 -8 43 15 70 20 23 38 30
108 43 4 0 14 -10 23 -24z m6030 -55 c14 -5 26 -16 26 -25 0 -18 -36 -20 -43
-2 -3 8 -10 7 -26 -7 -26 -23 -34 -17 -25 18 7 28 25 33 68 16z m-6189 -60 c3
-5 11 -7 18 -5 7 3 20 -11 29 -29 16 -33 16 -36 -8 -83 -26 -51 -100 -140
-110 -131 -3 3 4 24 15 47 29 56 27 66 -19 84 -30 12 -40 21 -40 38 0 30 28
59 55 59 13 0 25 7 29 15 6 17 22 20 31 5z"/>
<path d="M4840 9620 c20 -13 50 -13 50 0 0 6 -15 10 -32 10 -25 0 -29 -3 -18
-10z"/>
<path d="M5195 9470 c27 -12 43 -12 25 0 -8 5 -22 9 -30 9 -10 0 -8 -3 5 -9z"/>
<path d="M6188 8804 c-9 -8 7 -57 19 -61 12 -4 44 52 35 61 -7 8 -47 8 -54 0z"/>
<path d="M6667 8726 c-16 -12 -16 -14 -1 -20 29 -11 44 -6 44 14 0 23 -17 25
-43 6z"/>
<path d="M3329 9149 c-10 -6 -7 -9 14 -9 29 0 35 5 14 13 -8 3 -20 1 -28 -4z"/>
<path d="M3201 8988 c-127 -7 -154 -12 -223 -39 -50 -20 -80 -38 -83 -50 -4
-11 -10 -17 -14 -14 -14 8 -50 -35 -60 -73 -17 -60 -1 -252 19 -252 5 0 12
-10 15 -22 17 -55 57 -130 119 -221 36 -54 66 -103 66 -108 0 -6 6 -16 13 -24
6 -7 30 -35 52 -61 22 -27 79 -89 126 -139 48 -49 133 -140 189 -202 56 -61
136 -141 179 -176 42 -36 148 -138 236 -226 87 -88 174 -168 192 -176 18 -9
33 -22 33 -30 0 -8 6 -15 13 -15 8 0 22 -10 33 -21 10 -12 66 -60 124 -108 58
-47 112 -93 120 -101 34 -33 133 -115 142 -119 6 -2 9 12 7 36 -4 35 0 45 33
79 21 21 38 45 38 52 0 6 4 12 8 12 5 0 18 19 28 42 10 23 28 54 40 68 12 14
32 45 46 70 14 25 54 95 88 155 34 61 75 129 91 153 16 23 29 46 29 51 0 5 7
14 15 21 14 11 31 44 69 132 9 20 21 40 26 43 22 13 9 51 -26 75 -39 28 -73
54 -200 155 -48 39 -97 79 -109 90 -54 51 -208 187 -287 254 -94 78 -394 391
-540 562 -9 10 -23 17 -31 14 -8 -4 -38 3 -68 14 -30 12 -59 21 -66 21 -7 0
-37 11 -67 25 -31 14 -68 27 -83 30 -15 2 -64 11 -108 19 -44 9 -80 15 -80 14
0 0 -65 -5 -144 -10z m807 -1506 c2 -7 -2 -10 -12 -6 -9 3 -16 11 -16 16 0 13
23 5 28 -10z"/>
<path d="M3950 8800 c0 -5 6 -10 14 -10 7 0 19 -7 26 -15 7 -8 17 -15 22 -15
6 0 5 7 -2 15 -7 8 -9 15 -4 15 5 0 2 5 -6 10 -20 13 -50 13 -50 0z"/>
<path d="M4040 8743 c0 -10 9 -25 20 -33 11 -8 20 -17 20 -21 0 -24 410 -427
610 -600 47 -41 102 -89 122 -108 21 -18 48 -41 60 -49 13 -8 48 -38 78 -67
30 -29 73 -59 95 -66 49 -17 55 -24 55 -70 0 -28 -12 -51 -55 -107 -30 -40
-55 -74 -55 -77 0 -2 25 -12 55 -20 42 -13 55 -21 55 -35 0 -11 -18 -66 -40
-122 -22 -57 -40 -112 -40 -124 0 -11 -6 -26 -12 -33 -17 -17 12 -39 61 -46
20 -3 56 -10 81 -16 78 -20 120 -27 120 -20 0 3 21 29 48 57 26 28 64 70 85
93 36 40 41 43 75 36 20 -3 50 -13 66 -21 26 -13 31 -12 48 3 10 9 32 40 48
68 16 28 38 62 50 75 11 13 18 26 15 28 -3 3 -13 -5 -22 -17 -13 -19 -22 -22
-52 -18 -20 2 -56 14 -80 25 -39 19 -43 19 -48 4 -6 -15 -98 -136 -129 -169
-25 -26 -231 46 -240 84 -4 16 12 59 50 135 31 62 56 116 56 121 0 4 -13 7
-29 7 -17 0 -33 5 -36 10 -4 6 -15 8 -24 5 -37 -11 -43 19 -16 73 14 27 25 55
25 61 0 6 14 36 31 68 30 55 31 63 33 182 l1 124 -38 24 c-21 13 -54 33 -75
44 -20 11 -99 57 -174 103 -76 46 -166 97 -200 114 -35 16 -137 66 -228 110
-91 44 -181 83 -200 87 -19 4 -49 18 -67 31 -17 13 -43 24 -57 24 -17 0 -24 4
-20 14 6 15 -29 31 -88 42 -33 5 -38 4 -38 -13z"/>
<path d="M4840 8511 c0 -5 7 -12 16 -15 14 -5 15 -4 4 9 -14 17 -20 19 -20 6z"/>
<path d="M5117 8384 c-11 -12 3 -24 29 -24 16 0 24 5 22 13 -5 13 -40 22 -51
11z"/>
<path d="M5938 8378 c5 -5 16 -8 23 -6 8 3 3 7 -10 11 -17 4 -21 3 -13 -5z"/>
<path d="M5378 8343 c7 -3 16 -2 19 1 4 3 -2 6 -13 5 -11 0 -14 -3 -6 -6z"/>
<path d="M5965 8340 c-3 -6 1 -13 10 -16 19 -8 30 0 20 15 -8 14 -22 14 -30 1z"/>
<path d="M5271 8318 c-11 -30 -5 -43 25 -57 34 -15 44 -7 44 37 0 35 -2 38
-30 40 -24 2 -32 -3 -39 -20z"/>
<path d="M6010 8320 c0 -5 5 -10 10 -10 6 0 10 5 10 10 0 6 -4 10 -10 10 -5 0
-10 -4 -10 -10z"/>
<path d="M5235 8310 c-3 -5 -1 -10 4 -10 6 0 11 5 11 10 0 6 -2 10 -4 10 -3 0
-8 -4 -11 -10z"/>
<path d="M5480 8285 c0 -14 6 -25 13 -26 26 -2 62 3 70 11 12 11 -32 40 -60
40 -18 0 -23 -6 -23 -25z"/>
<path d="M5350 8235 c0 -10 64 -34 74 -28 5 3 -6 12 -24 19 -34 15 -50 17 -50
9z"/>
<path d="M5447 7918 c-18 -10 -18 -11 2 -29 20 -18 82 -45 131 -56 14 -3 37
-15 53 -25 24 -17 27 -17 27 -3 0 9 -16 22 -37 31 -21 8 -57 24 -80 35 -24 10
-47 19 -53 19 -6 0 -14 9 -18 19 -6 16 -11 18 -25 9z"/>
<path d="M5372 7837 c-12 -13 -22 -30 -22 -38 0 -14 -7 -22 -60 -73 -11 -11
-20 -26 -20 -34 0 -17 59 27 59 44 1 6 8 17 16 24 8 7 15 21 15 32 0 10 4 17
9 14 5 -3 12 1 15 9 3 8 11 14 18 13 6 -2 14 5 16 15 5 24 -20 21 -46 -6z"/>
<path d="M5247 7673 c-4 -3 -7 -11 -7 -17 0 -6 5 -5 12 2 6 6 9 14 7 17 -3 3
-9 2 -12 -2z"/>
<path d="M5710 7490 c0 -5 5 -10 10 -10 6 0 10 5 10 10 0 6 -4 10 -10 10 -5 0
-10 -4 -10 -10z"/>
<path d="M4920 7367 c8 -8 30 -18 48 -22 25 -5 32 -3 32 9 0 9 -1 16 -2 17 -2
0 -23 2 -48 5 -40 5 -43 4 -30 -9z"/>
<path d="M6685 7340 c3 -5 8 -10 11 -10 2 0 4 5 4 10 0 6 -5 10 -11 10 -5 0
-7 -4 -4 -10z"/>
<path d="M6832 7228 c5 -15 28 -23 28 -10 0 5 -7 13 -16 16 -10 4 -14 1 -12
-6z"/>
<path d="M5436 7211 c-16 -25 63 -36 86 -13 9 9 5 12 -19 12 -17 0 -38 3 -46
6 -8 3 -18 1 -21 -5z"/>
<path d="M7450 6740 c0 -5 5 -10 11 -10 5 0 7 5 4 10 -3 6 -8 10 -11 10 -2 0
-4 -4 -4 -10z"/>
<path d="M5071 4827 c-6 -16 -11 -38 -11 -51 0 -12 -6 -28 -12 -35 -11 -11 -9
-11 9 -2 37 19 53 65 34 99 -8 15 -11 14 -20 -11z"/>
<path d="M4029 4733 c-13 -16 -12 -17 4 -4 9 7 17 15 17 17 0 8 -8 3 -21 -13z"/>
<path d="M8865 4410 c-3 -5 -2 -10 4 -10 5 0 13 5 16 10 3 6 2 10 -4 10 -5 0
-13 -4 -16 -10z"/>
<path d="M8995 4300 c3 -5 8 -10 11 -10 2 0 4 5 4 10 0 6 -5 10 -11 10 -5 0
-7 -4 -4 -10z"/>
<path d="M4545 3880 c-10 -11 -14 -20 -9 -20 5 0 15 9 22 20 7 11 11 20 9 20
-2 0 -12 -9 -22 -20z"/>
<path d="M4237 3773 c-12 -12 -7 -22 8 -17 8 4 15 10 15 15 0 11 -14 12 -23 2z"/>
<path d="M3805 3520 c-4 -6 -12 -8 -18 -4 -7 3 -3 -2 7 -10 11 -9 23 -16 28
-16 4 0 8 -6 8 -14 0 -11 7 -9 24 7 18 16 22 25 14 34 -13 15 -54 17 -63 3z"/>
</g>
</svg>
